<mxfile host="app.diagrams.net" modified="2023-10-03T17:34:35.987Z" agent="Mozilla/5.0 (Windows NT 10.0; Win64; x64) AppleWebKit/537.36 (KHTML, like Gecko) Chrome/117.0.0.0 Safari/537.36" etag="7EcM6BkyPlyHZyU6x9-h" version="22.0.0" type="github">
  <diagram id="C5RBs43oDa-KdzZeNtuy" name="Page-1">
    <mxGraphModel dx="3088" dy="790" grid="1" gridSize="10" guides="1" tooltips="1" connect="1" arrows="1" fold="1" page="1" pageScale="1" pageWidth="827" pageHeight="1169" math="0" shadow="0">
      <root>
        <mxCell id="WIyWlLk6GJQsqaUBKTNV-0" />
        <mxCell id="WIyWlLk6GJQsqaUBKTNV-1" parent="WIyWlLk6GJQsqaUBKTNV-0" />
        <mxCell id="OdqGyYUFgx45hY2N_Q9--0" value="Start" style="rounded=1;whiteSpace=wrap;html=1;" vertex="1" parent="WIyWlLk6GJQsqaUBKTNV-1">
          <mxGeometry x="-473" y="120" width="120" height="60" as="geometry" />
        </mxCell>
        <mxCell id="OdqGyYUFgx45hY2N_Q9--1" value="" style="endArrow=classic;html=1;rounded=0;" edge="1" parent="WIyWlLk6GJQsqaUBKTNV-1">
          <mxGeometry width="50" height="50" relative="1" as="geometry">
            <mxPoint x="-1130" y="440" as="sourcePoint" />
            <mxPoint x="-1080" y="390" as="targetPoint" />
          </mxGeometry>
        </mxCell>
        <mxCell id="OdqGyYUFgx45hY2N_Q9--2" value="" style="endArrow=classic;html=1;rounded=0;" edge="1" parent="WIyWlLk6GJQsqaUBKTNV-1">
          <mxGeometry width="50" height="50" relative="1" as="geometry">
            <mxPoint x="-414" y="180" as="sourcePoint" />
            <mxPoint x="-414" y="260" as="targetPoint" />
          </mxGeometry>
        </mxCell>
        <mxCell id="OdqGyYUFgx45hY2N_Q9--8" value="" style="edgeStyle=orthogonalEdgeStyle;rounded=0;orthogonalLoop=1;jettySize=auto;html=1;" edge="1" parent="WIyWlLk6GJQsqaUBKTNV-1" source="OdqGyYUFgx45hY2N_Q9--3" target="OdqGyYUFgx45hY2N_Q9--4">
          <mxGeometry relative="1" as="geometry" />
        </mxCell>
        <mxCell id="OdqGyYUFgx45hY2N_Q9--3" value="Open contact apps on phone" style="rounded=0;whiteSpace=wrap;html=1;" vertex="1" parent="WIyWlLk6GJQsqaUBKTNV-1">
          <mxGeometry x="-473" y="260" width="120" height="60" as="geometry" />
        </mxCell>
        <mxCell id="OdqGyYUFgx45hY2N_Q9--17" value="" style="edgeStyle=orthogonalEdgeStyle;rounded=0;orthogonalLoop=1;jettySize=auto;html=1;" edge="1" parent="WIyWlLk6GJQsqaUBKTNV-1" source="OdqGyYUFgx45hY2N_Q9--4" target="OdqGyYUFgx45hY2N_Q9--9">
          <mxGeometry relative="1" as="geometry" />
        </mxCell>
        <mxCell id="OdqGyYUFgx45hY2N_Q9--4" value="Click the plus sign on the top right" style="rounded=0;whiteSpace=wrap;html=1;" vertex="1" parent="WIyWlLk6GJQsqaUBKTNV-1">
          <mxGeometry x="-473" y="370" width="120" height="60" as="geometry" />
        </mxCell>
        <mxCell id="OdqGyYUFgx45hY2N_Q9--16" value="" style="edgeStyle=orthogonalEdgeStyle;rounded=0;orthogonalLoop=1;jettySize=auto;html=1;" edge="1" parent="WIyWlLk6GJQsqaUBKTNV-1" source="OdqGyYUFgx45hY2N_Q9--9" target="OdqGyYUFgx45hY2N_Q9--10">
          <mxGeometry relative="1" as="geometry" />
        </mxCell>
        <mxCell id="OdqGyYUFgx45hY2N_Q9--9" value="Add first name and last name" style="rounded=0;whiteSpace=wrap;html=1;" vertex="1" parent="WIyWlLk6GJQsqaUBKTNV-1">
          <mxGeometry x="-473" y="480" width="120" height="60" as="geometry" />
        </mxCell>
        <mxCell id="OdqGyYUFgx45hY2N_Q9--14" value="" style="edgeStyle=orthogonalEdgeStyle;rounded=0;orthogonalLoop=1;jettySize=auto;html=1;" edge="1" parent="WIyWlLk6GJQsqaUBKTNV-1" source="OdqGyYUFgx45hY2N_Q9--10" target="OdqGyYUFgx45hY2N_Q9--11">
          <mxGeometry relative="1" as="geometry" />
        </mxCell>
        <mxCell id="OdqGyYUFgx45hY2N_Q9--10" value="Add phone number" style="rounded=0;whiteSpace=wrap;html=1;" vertex="1" parent="WIyWlLk6GJQsqaUBKTNV-1">
          <mxGeometry x="-473" y="585" width="120" height="60" as="geometry" />
        </mxCell>
        <mxCell id="OdqGyYUFgx45hY2N_Q9--19" value="" style="edgeStyle=orthogonalEdgeStyle;rounded=0;orthogonalLoop=1;jettySize=auto;html=1;" edge="1" parent="WIyWlLk6GJQsqaUBKTNV-1" source="OdqGyYUFgx45hY2N_Q9--11" target="OdqGyYUFgx45hY2N_Q9--12">
          <mxGeometry relative="1" as="geometry" />
        </mxCell>
        <mxCell id="OdqGyYUFgx45hY2N_Q9--11" value="Click done" style="rounded=0;whiteSpace=wrap;html=1;" vertex="1" parent="WIyWlLk6GJQsqaUBKTNV-1">
          <mxGeometry x="-470" y="680" width="120" height="60" as="geometry" />
        </mxCell>
        <mxCell id="OdqGyYUFgx45hY2N_Q9--21" value="" style="edgeStyle=orthogonalEdgeStyle;rounded=0;orthogonalLoop=1;jettySize=auto;html=1;" edge="1" parent="WIyWlLk6GJQsqaUBKTNV-1" source="OdqGyYUFgx45hY2N_Q9--12">
          <mxGeometry relative="1" as="geometry">
            <mxPoint x="-250" y="850" as="targetPoint" />
          </mxGeometry>
        </mxCell>
        <mxCell id="OdqGyYUFgx45hY2N_Q9--29" value="No" style="edgeLabel;html=1;align=center;verticalAlign=middle;resizable=0;points=[];" vertex="1" connectable="0" parent="OdqGyYUFgx45hY2N_Q9--21">
          <mxGeometry x="-0.2239" y="-3" relative="1" as="geometry">
            <mxPoint as="offset" />
          </mxGeometry>
        </mxCell>
        <mxCell id="OdqGyYUFgx45hY2N_Q9--24" value="" style="edgeStyle=orthogonalEdgeStyle;rounded=0;orthogonalLoop=1;jettySize=auto;html=1;" edge="1" parent="WIyWlLk6GJQsqaUBKTNV-1" source="OdqGyYUFgx45hY2N_Q9--12" target="OdqGyYUFgx45hY2N_Q9--20">
          <mxGeometry relative="1" as="geometry" />
        </mxCell>
        <mxCell id="OdqGyYUFgx45hY2N_Q9--28" value="Yes" style="edgeLabel;html=1;align=center;verticalAlign=middle;resizable=0;points=[];" vertex="1" connectable="0" parent="OdqGyYUFgx45hY2N_Q9--24">
          <mxGeometry x="-0.3714" y="-2" relative="1" as="geometry">
            <mxPoint as="offset" />
          </mxGeometry>
        </mxCell>
        <mxCell id="OdqGyYUFgx45hY2N_Q9--12" value="Do you have anyone else you need to add?" style="rhombus;whiteSpace=wrap;html=1;" vertex="1" parent="WIyWlLk6GJQsqaUBKTNV-1">
          <mxGeometry x="-470" y="770" width="133" height="120" as="geometry" />
        </mxCell>
        <mxCell id="OdqGyYUFgx45hY2N_Q9--27" style="edgeStyle=orthogonalEdgeStyle;rounded=0;orthogonalLoop=1;jettySize=auto;html=1;entryX=0.5;entryY=1;entryDx=0;entryDy=0;" edge="1" parent="WIyWlLk6GJQsqaUBKTNV-1" source="OdqGyYUFgx45hY2N_Q9--20" target="OdqGyYUFgx45hY2N_Q9--12">
          <mxGeometry relative="1" as="geometry">
            <mxPoint x="-430" y="910" as="targetPoint" />
            <Array as="points">
              <mxPoint x="-550" y="930" />
              <mxPoint x="-539" y="930" />
              <mxPoint x="-539" y="950" />
              <mxPoint x="-430" y="950" />
              <mxPoint x="-430" y="910" />
              <mxPoint x="-403" y="910" />
            </Array>
          </mxGeometry>
        </mxCell>
        <mxCell id="OdqGyYUFgx45hY2N_Q9--20" value="Start at step 2 again" style="rounded=0;whiteSpace=wrap;html=1;" vertex="1" parent="WIyWlLk6GJQsqaUBKTNV-1">
          <mxGeometry x="-610" y="850" width="120" height="60" as="geometry" />
        </mxCell>
        <mxCell id="OdqGyYUFgx45hY2N_Q9--30" value="End" style="rounded=1;whiteSpace=wrap;html=1;" vertex="1" parent="WIyWlLk6GJQsqaUBKTNV-1">
          <mxGeometry x="-250" y="820" width="120" height="60" as="geometry" />
        </mxCell>
      </root>
    </mxGraphModel>
  </diagram>
</mxfile>
